<svg xmlns="http://www.w3.org/2000/svg" width="512" height="512" viewBox="0 0 511.6 511.6"><path d="M392.9 292.4h-18.3c-2.7 0-4.9 0.9-6.6 2.6 -1.7 1.7-2.6 3.9-2.6 6.6v91.4c0 12.6-4.5 23.3-13.4 32.3 -8.9 8.9-19.7 13.4-32.3 13.4H82.2c-12.6 0-23.3-4.5-32.3-13.4 -8.9-8.9-13.4-19.7-13.4-32.3V155.3c0-12.6 4.5-23.3 13.4-32.3 8.9-8.9 19.7-13.4 32.3-13.4h201c2.7 0 4.9-0.9 6.6-2.6 1.7-1.7 2.6-3.9 2.6-6.6V82.2c0-2.7-0.9-4.9-2.6-6.6 -1.7-1.7-3.9-2.6-6.6-2.6H82.2c-22.6 0-42 8-58.1 24.1C8 113.3 0 132.7 0 155.3v237.5c0 22.6 8 42 24.1 58.1 16.1 16.1 35.5 24.1 58.1 24.1h237.5c22.6 0 42-8 58.1-24.1 16.1-16.1 24.1-35.4 24.1-58.1v-91.4c0-2.7-0.9-4.9-2.6-6.6C397.7 293.2 395.5 292.4 392.9 292.4z"/><path d="M506.2 42c-3.6-3.6-7.9-5.4-12.8-5.4H347.2c-4.9 0-9.2 1.8-12.8 5.4 -3.6 3.6-5.4 7.9-5.4 12.8s1.8 9.2 5.4 12.9l50.2 50.2L198.4 304.1c-1.9 1.9-2.9 4.1-2.9 6.6 0 2.5 1 4.7 2.9 6.6l32.5 32.5c1.9 1.9 4.1 2.9 6.6 2.9s4.7-0.9 6.6-2.9l186.1-186.1 50.3 50.2c3.6 3.6 7.9 5.4 12.8 5.4s9.2-1.8 12.9-5.4c3.6-3.6 5.4-7.9 5.4-12.8V54.8C511.6 49.9 509.8 45.6 506.2 42z"/></svg>
